<?xml version="1.0" encoding="UTF-8"?>
<svg width="1221px" height="798px" viewBox="0 0 1221 798" version="1.1" xmlns="http://www.w3.org/2000/svg" xmlns:xlink="http://www.w3.org/1999/xlink">
    <title>Product-cube-website</title>
    <defs>
        <linearGradient x1="50%" y1="0%" x2="50%" y2="100%" id="linearGradient-1">
            <stop stop-color="#005992" offset="0%"></stop>
            <stop stop-color="#005992" stop-opacity="0" offset="100%"></stop>
        </linearGradient>
        <linearGradient x1="50%" y1="0%" x2="50%" y2="100%" id="linearGradient-2">
            <stop stop-color="#005992" offset="0%"></stop>
            <stop stop-color="#005992" stop-opacity="0" offset="100%"></stop>
        </linearGradient>
        <polygon id="path-3" points="-3.92090281e-15 -2.70179858e-15 231.437854 -2.70179858e-15 231.437854 85.3599217 0.0023742086 85.3599217"></polygon>
        <linearGradient x1="50%" y1="0%" x2="50%" y2="100%" id="linearGradient-5">
            <stop stop-color="#005992" offset="0%"></stop>
            <stop stop-color="#005992" stop-opacity="0" offset="100%"></stop>
        </linearGradient>
        <polygon id="path-6" points="0 2.3406953e-16 138.707125 2.3406953e-16 138.707125 53.0921508 0 53.0921508"></polygon>
        <polygon id="path-8" points="0 0 48.746875 0 48.746875 18.653743 0 18.653743"></polygon>
        <linearGradient x1="50%" y1="0%" x2="50%" y2="100%" id="linearGradient-10">
            <stop stop-color="#005992" offset="0%"></stop>
            <stop stop-color="#005992" stop-opacity="0" offset="100%"></stop>
        </linearGradient>
        <polygon id="path-11" points="0 0 145.280225 0 145.280225 56.012578 0 56.012578"></polygon>
    </defs>
    <g id="Product-cube-website" stroke="none" stroke-width="1" fill="none" fill-rule="evenodd">
        <g id="K8s" transform="translate(210.900000, 0.250000)">
            <polygon id="Path" fill="url(#linearGradient-1)" fill-rule="nonzero" points="399.75422 619.071006 0 468.775148 3.36849667e-13 171.500592 399.75422 321.893491 799.99778 171.836881 799.99778 468.775148"></polygon>
            <g id="cubes-graphic-on-dark">
                <g id="Group">
                    <polygon id="Path" fill="#0D0D28" fill-rule="nonzero" points="0 171.500592 399.75422 321.893491 799.508441 171.500592 799.508441 150.392899 399.75422 0 0 150.392899"></polygon>
                    <line x1="399.75422" y1="300.785799" x2="399.75422" y2="321.893491" id="Path" stroke="#00ABE8"></line>
                    <line x1="399.75422" y1="21.1076923" x2="399.75422" y2="0" id="Path" stroke="#00ABE8" stroke-width="0.4"></line>
                    <polyline id="Path" stroke-opacity="0.5" stroke="#00ABE8" stroke-width="0.4" points="796.878105 171.500592 606.405864 99.3680473 399.75422 21.1076923 2.63033546 171.500592"></polyline>
                    <polyline id="Path" stroke="#00ABE8" points="0 150.392899 399.75422 300.785799 799.508441 150.392899"></polyline>
                    <polygon id="Path" stroke="#00ABE8" points="0 171.500592 399.75422 321.893491 799.508441 171.500592 799.508441 150.392899 399.75422 0 0 150.392899"></polygon>
                </g>
                <path d="M364.197383,89.3159763 C370.134561,87.8792899 377.429485,87.5526627 384.019516,88.4284024 L509.759959,105.152663 C512.645758,105.536095 515.295017,106.139645 517.558714,106.923077 C520.404302,107.910059 522.554459,109.157396 523.810492,110.551479 L567.386067,158.842604 C569.671053,161.375148 568.819505,164.177515 565.077427,166.456805 L493.672808,209.950296 C489.925999,212.231953 483.69078,213.739645 476.736475,214.052071 L344.13871,219.992899 C337.189137,220.300592 330.27741,219.377515 325.357358,217.486391 L231.384366,181.408284 C226.457218,179.51716 224.058692,176.861538 224.867662,174.189349 L240.309056,123.254438 C240.396576,122.970414 240.521943,122.686391 240.687522,122.402367 C242.005055,120.068639 245.725844,118.030769 250.995977,116.75503 L364.197383,89.3159763 Z M381.143178,105.252071 L380.476132,105.271006 C376.50934,105.453254 373.670849,106.975148 374.132104,108.665089 C374.134469,108.681657 374.146296,108.698225 374.151027,108.712426 C374.210162,108.949112 374.266932,109.240237 374.342625,109.446154 C374.704533,110.416568 375.46856,111.136095 376.04572,112.018935 C377.176386,113.912426 378.110723,115.484024 378.200608,116.979882 C378.136742,117.602367 376.788459,118.224852 376.249145,118.511243 L376.398166,119.701775 L374.567339,119.855621 C353.872371,121.68284 334.66761,126.175148 320.792117,132.979882 L319.614143,133.571598 L316.865538,132.99645 L316.430302,133.020118 C315.973778,133.043787 315.46758,133.072189 314.956652,133.091124 L314.277779,133.107692 C313.669233,133.126219 313.06018,133.096143 312.456414,133.017751 C309.017109,132.336095 305.776497,131.327811 301.857014,130.113609 C300.054572,129.528994 298.701557,128.944379 296.601074,128.397633 C296.137453,128.27929 295.45385,128.125444 294.928729,128 L294.874325,127.988166 L294.777343,127.966864 C291.056554,127.102959 286.349388,127.436686 284.218154,128.728994 C282.089286,130.023669 283.333491,131.784615 286.995145,132.686391 C287.021165,132.693491 287.054281,132.705325 287.082665,132.710059 C287.122877,132.721893 287.170186,132.726627 287.212763,132.733728 C287.723691,132.861538 288.35289,133.022485 288.821241,133.12426 C291.023438,133.609467 292.972535,133.824852 295.136885,134.189349 C299.711587,135.008284 303.50807,135.68284 306.609122,136.570414 C307.829673,136.968047 308.222331,137.732544 308.477795,138.089941 L311.070284,138.790533 L310.436354,139.266272 C300.052206,147.247337 297.954088,156.115976 303.214759,164.250888 L300.049841,164.759763 L299.801473,164.96568 C299.15856,165.494737 298.401338,165.866693 297.589815,166.052071 C294.013316,166.667456 289.59473,167.072189 284.62737,167.507692 C282.290346,167.692308 280.246632,167.744379 277.796067,168.042604 C277.209446,168.113609 276.362629,168.243787 275.761815,168.326627 C271.627079,168.913609 269.32317,170.532544 270.600491,171.964497 C271.593963,173.076923 274.458474,173.746746 277.644681,173.732544 L278.210014,173.723077 C278.966945,173.699408 279.735703,173.63787 280.518654,173.533728 L280.530481,173.531361 L281.008294,173.467456 C281.50976,173.401183 282.060901,173.330178 282.465386,173.268639 C284.85445,172.901775 286.526794,172.44497 288.646201,172.016568 C292.932323,171.297041 296.865999,170.336095 300.586789,170.042604 L301.816802,169.971598 L302.483847,169.976331 C303.359049,170.021302 304.212962,170.20355 305.083432,170.395266 L308.342967,170.023669 L308.986358,170.575148 C316.217415,176.624852 327.916731,181.940828 343.61832,185.711243 C347.308359,186.598817 351.100111,187.368047 354.972286,188.028402 C354.714456,188.376331 354.196432,189.03432 354.075796,189.204734 C354.657687,189.647337 355.457195,190.068639 355.069268,190.811834 C354.052142,192.262722 352.159814,193.713609 349.886655,195.472189 C348.774913,196.286391 347.592208,196.932544 346.638948,197.848521 C346.42133,198.059172 346.156404,198.369231 345.945883,198.59645 C344.448579,200.208284 346.279406,201.912426 350.035676,202.407101 C350.78078,202.506509 351.544808,202.549112 352.304104,202.54277 L352.871802,202.527811 C355.700832,202.409467 358.359553,201.616568 359.504411,200.423669 C359.717298,200.194083 360.043724,199.865089 360.230592,199.63787 C361.00408,198.698225 361.136543,197.91716 361.616722,197.020118 C362.747387,195.110059 363.68882,193.526627 365.297299,192.153846 C366.222174,191.481657 367.534976,191.349112 368.722412,191.136095 C368.750797,190.998817 369.408381,190.487574 369.80577,190.149112 L369.959521,190.014201 L372.949399,190.281657 C378.943347,190.776331 385.015353,191.03432 391.080263,191.067456 L393.438577,191.067456 L395.794525,191.046154 C409.135435,190.861538 422.315497,189.583432 434.383817,187.306509 L436.500858,186.892308 L436.758688,187.029586 C437.305098,187.323077 438.028913,187.723077 438.282012,187.869822 C439.554602,187.966864 440.921809,187.981065 442.184938,188.551479 C444.491212,189.742012 446.246346,191.202367 448.37758,192.95858 C449.328474,193.786982 449.879615,194.542012 451.142744,195.386982 C451.407669,195.566864 451.840539,195.80355 452.164601,196.002367 C452.19062,196.016568 452.204813,196.035503 452.230832,196.049704 L452.294698,196.085207 C453.813291,196.994083 456.268586,197.51716 458.728612,197.550296 L459.395658,197.545562 C460.509766,197.521893 461.60495,197.391716 462.596057,197.150296 C465.959669,196.331361 466.832505,194.523077 464.57827,193.095858 C464.247113,192.889941 463.797685,192.589349 463.459431,192.395266 C462.035455,191.588166 460.516862,191.069822 458.993538,190.376331 C455.830985,188.871006 453.203015,187.626036 451.431324,186.305325 C450.787932,185.737278 451.315419,184.951479 451.478632,184.608284 L450.035732,183.590533 L451.589806,183.12426 C459.81197,180.617751 467.095066,177.547929 473.010955,173.947929 C479.054577,170.272189 483.172755,166.345562 485.48376,162.338462 L485.817283,161.737278 L486.143709,161.742012 L486.90064,161.756213 L487.70961,161.770414 L489.254223,161.798817 C490.167271,161.502959 490.992799,161.147929 492.613105,161.062722 L493.121668,161.043787 L494.294911,161.065089 C497.84066,161.152663 501.59693,161.481657 506.034439,161.869822 C508.333617,162.094675 510.216483,162.390533 512.74274,162.530178 C513.315169,162.560947 514.147793,162.584615 514.769896,162.608284 C515.136535,162.622485 515.503173,162.627219 515.857985,162.624852 L516.394933,162.615385 C520.10626,162.504142 523.188389,161.502959 523.607066,160.170414 C524.084879,158.646154 520.910499,157.266272 516.510838,157.091124 C515.888735,157.065089 515.056111,157.024852 514.47422,157.008284 C511.924308,156.944379 509.908979,157.072189 507.531743,157.105325 C502.453208,157.136095 498.235683,157.169231 494.420277,156.894675 C492.856742,156.740828 491.617267,156.111243 491.004626,155.846154 L487.681226,155.642604 L487.714341,155.107692 C488.092807,146.572781 480.627574,138.16568 466.274269,131.557396 L466.536829,131.443787 L467.151836,131.178698 L468.452811,130.627219 C468.436253,130.130178 468.18552,129.611834 469.37059,129.00355 C471.920501,127.855621 475.265191,126.852071 479.286387,125.635503 C481.200003,125.081657 482.983522,124.695858 484.873484,124.021302 C485.303989,123.869822 485.878783,123.628402 486.325846,123.455621 C489.483668,122.24142 489.779344,120.388166 486.981064,119.313609 C484.182785,118.239053 479.352618,118.350296 476.194797,119.564497 L476.062334,119.623669 L475.721715,119.749112 C475.369269,119.87929 475.000265,120.014201 474.728243,120.127811 C472.975474,120.852071 471.970175,121.538462 470.527275,122.272189 C467.359992,123.815385 464.739118,125.098225 461.751606,126.07574 C460.493208,126.395266 458.780651,126.471006 457.444195,126.466272 L455.145017,127.256805 L453.477403,126.728994 C450.531818,125.82072 447.557743,125.007674 444.559809,124.291124 C429.073472,120.570414 411.737385,118.849704 394.576339,118.934911 L392.234583,118.95858 L392.144698,118.75503 C391.99792,118.422301 391.859109,118.086111 391.728386,117.746746 C390.699432,117.446154 389.50017,117.204734 389.015261,116.47574 C388.298542,115.008284 388.3766,113.394083 388.454659,111.443787 C388.544544,110.530178 388.889894,109.763314 388.717219,108.781065 C388.679373,108.55858 388.572929,108.236686 388.504332,108 C388.303273,107.259172 387.499033,106.60355 386.328156,106.123077 C384.82612,105.505325 382.709079,105.166864 380.476132,105.271006 L381.143178,105.252071 Z M398.758383,168.035503 C399.333177,168.04497 399.910337,168.087574 400.480401,168.163314 C401.21533,168.251839 401.939586,168.413588 402.642385,168.646154 C403.006659,168.771598 403.318893,168.918343 403.59328,169.072189 L403.690262,169.067456 L425.53955,180.939645 L423.446163,181.311243 C414.320413,182.868639 404.487405,183.718343 394.55505,183.80355 L392.414354,183.810651 C387.421776,183.800357 382.431569,183.59191 377.455504,183.185799 L392.352854,169.595266 L392.428547,169.592899 L392.660357,169.398817 C393.738984,168.582249 395.889141,168.068639 398.183588,168.033136 L398.758383,168.035503 Z M365.259452,163.704142 L365.921767,163.72071 C367.229838,163.784615 368.457486,164.002367 369.417842,164.343195 C370.144023,164.60355 370.709356,164.934911 371.054706,165.32071 C371.506499,165.827219 371.508864,166.352663 371.120937,166.833136 L371.217919,166.871006 L360.436382,180.915976 L358.205801,180.47574 C356.739559,180.173734 355.278331,179.847853 353.822697,179.498225 C341.688146,176.584615 332.548203,172.544379 326.729296,167.943195 L363.218104,163.805917 L363.241758,163.815385 L363.913534,163.749112 L364.587676,163.711243 L365.259452,163.704142 L365.259452,163.704142 Z M428.943375,160.698225 L466.728427,161.384615 L466.354693,161.947929 C464.410326,164.759763 461.330563,167.514793 457.051537,170.115976 C452.888416,172.648521 447.897402,174.854438 442.305573,176.712426 L440.895789,177.171598 L422.764925,164.442604 L422.852445,164.392899 L422.651385,164.243787 C421.281813,163.140828 422.284747,161.782249 425.071199,161.102959 C426.325438,160.813044 427.611737,160.685766 428.898432,160.72426 L428.943375,160.698225 L428.943375,160.698225 Z M326.618121,143.013018 L357.283291,151.325444 L357.271464,151.363314 L357.609718,151.457988 C357.829701,151.52426 358.035491,151.595266 358.224724,151.671006 C360.209303,152.454438 360.594865,153.694675 358.981655,154.672189 C358.224724,155.131361 357.150828,155.462722 355.937373,155.652071 L355.913719,155.718343 L320.898561,161.384615 L320.633635,160.88284 C317.783316,155.178698 319.413084,149.105325 326.038596,143.493491 L326.618121,143.013018 L326.618121,143.013018 Z M398.533669,150.149112 L406.68487,153.280473 L405.315298,157.699408 L395.465733,160.085207 L384.573022,158.648521 L380.819117,154.449704 L387.033048,150.667456 L398.533669,150.149112 L398.533669,150.149112 Z M453.40171,137.091124 C463.206333,141.933728 468.540331,147.865089 468.866758,153.943195 L468.88095,154.463905 L431.632845,152.139645 L431.590268,152.097041 L431.14084,152.066272 C428.032692,151.801183 425.906189,150.669822 426.298847,149.422485 C426.464425,148.887574 427.062874,148.409467 427.942806,148.026036 L453.40171,137.091124 Z M377.31358,127.031953 L379.125483,141.621302 L378.99302,141.656805 L379.004847,141.831953 C378.974097,143.057988 376.559014,144.12071 373.308941,144.269822 C372.209698,144.324674 371.107736,144.264386 370.021022,144.089941 L369.439131,143.978698 L369.330322,144.002367 L336.347051,137.081657 L337.47062,136.556213 C347.717575,131.893491 361.138909,128.710059 375.63887,127.2 L377.31358,127.03432 L377.31358,127.031953 Z M395.304885,126.194083 L397.535466,126.205917 C410.190407,126.35503 422.88083,127.749112 434.355432,130.504142 C436.576551,131.036686 438.686497,131.609467 440.704191,132.215385 L412.191544,142.009467 L412.028331,141.990533 L411.470094,142.16568 C410.422902,142.447102 409.346444,142.605175 408.262599,142.636686 L407.583726,142.646154 C405.996536,142.64142 404.423539,142.407101 403.224276,141.945562 C402.240266,141.566864 401.651279,141.093491 401.462046,140.601183 L401.395815,140.594083 L395.304885,126.194083 L395.304885,126.194083 Z" id="k8s-logo" fill="#1F4FFC" fill-rule="nonzero"></path>
            </g>
        </g>
        <g id="KV" transform="translate(650.500225, 181.350000)">
            <path d="M170.445626,538.853576 C57.1483921,496.423724 0.499775014,475.208798 0.499775014,475.208798 C0.499775014,475.208798 1.10396611,300.245268 1.16455342,300.245268 C1.20494496,300.245268 0.816760485,257.310326 0,171.440441 L169.332123,235.046651 L570.809775,84.3035278 L570.499775,388.090986 L170.445626,538.853576 Z" id="Path" fill="url(#linearGradient-2)" fill-rule="nonzero"></path>
            <g id="Group-2" transform="translate(0.499775, 0.000000)">
                <g id="Group">
                    <polygon id="Path" fill="#0D0D28" fill-rule="nonzero" points="569.810063 84.5123292 168.832348 235.046651 0 171.662404 0 150.534322 400.977716 0 569.810063 63.3842469"></polygon>
                    <path d="M400.977716,21.1280823 L400.977716,0 M0,171.662404 L400.98009,21.1304565 L569.810063,84.4719102" id="Shape" stroke-opacity="0.5" stroke="#00ABE8" stroke-width="0.4"></path>
                    <path d="M569.810063,63.3842469 L168.832348,213.918569 L0,150.534322 M168.832348,213.918569 L168.832348,235.046651" id="Shape" stroke="#00ABE8"></path>
                    <polygon id="Path" stroke="#00ABE8" points="569.810063 84.5123292 168.832348 235.046651 0 171.662404 0 150.534322 400.977716 0 569.810063 63.3842469"></polygon>
                </g>
                <g id="kubevirt" transform="translate(130.094760, 54.984297)">
                    <g id="Clipped" transform="translate(78.731131, 0.000000)">
                        <mask id="mask-4" fill="white">
                            <use xlink:href="#path-3"></use>
                        </mask>
                        <g id="mjytok6uto"></g>
                        <path d="M226.568352,8.34296901 C226.359422,8.5329057 225.9748,8.84867544 225.447726,9.29740087 C224.725966,9.86721093 223.733547,10.3776658 222.522701,10.8073975 C221.80569,11.0828057 220.979465,11.3154782 220.077266,11.495918 C219.2351,11.663439 218.375379,11.7256452 217.517869,11.6811063 C216.516552,11.6361303 215.522296,11.4905712 214.550108,11.2466261 C213.315339,10.9569301 212.104213,10.5743858 210.927066,10.1022576 L198.607298,5.37283406 L208.574225,1.54323559 L204.552316,0 L194.585388,3.82485005 L186.394369,0.598300566 L182.517286,2.72084305 L206.368585,11.8757914 C207.911821,12.4954598 209.633122,13.0486504 211.496876,13.521118 C212.964137,13.908114 214.642702,14.1621543 216.394868,14.2594968 C218.02541,14.3432938 219.660239,14.2525585 221.271493,13.9888371 C223.189853,13.6327058 224.915903,13.1483672 226.371293,12.5548151 C227.772076,12.0443602 228.949683,11.4531823 229.86138,10.7979007 C230.45968,10.3824142 230.986754,9.95030823 231.440228,9.50633122 L226.568352,8.34296901 L226.568352,8.34296901 Z M183.303149,7.93697934 C182.685855,8.09367711 182.092303,8.26462013 181.534364,8.4498084 C181.002541,8.62787404 180.473092,8.80356548 180.083722,8.95314062 C178.208097,9.67252582 176.522409,10.4583889 175.036155,11.3036071 C173.932148,11.9541403 172.932606,12.6331639 172.051774,13.3311813 L197.662363,23.1627791 L202.363296,21.3583805 L179.912779,12.7400033 C180.124084,12.6046734 180.546693,12.3316395 181.213845,11.9375208 C181.890495,11.5362796 182.671609,11.1635288 183.54057,10.8216428 C185.235755,10.1307481 187.237213,9.5561896 189.457098,9.13120626 L186.104715,7.21996834 L184.93423,7.50487338 C184.438021,7.64020327 183.870585,7.77315895 183.303149,7.93697934 L183.303149,7.93697934 Z M158.45943,17.6949767 L163.160363,15.8905781 L189.851216,26.1352882 L185.150283,27.9396868 L158.45943,17.6949767 Z M148.328682,13.6683189 C148.333431,14.1312896 148.848634,14.5752666 149.74371,14.8910363 C150.565187,15.2329224 151.719052,15.4323559 152.92515,15.4347301 C154.067144,15.4276075 155.152158,15.2495418 155.942769,14.9361463 C156.783239,14.6393702 157.250958,14.2191353 157.236713,13.7775325 C157.231964,13.3145618 156.716761,12.872959 155.821684,12.5571893 C155.000208,12.212929 153.846343,12.0158697 152.640245,12.0134955 C150.275533,12.0372376 148.392786,12.7613712 148.328682,13.6683189 L148.328682,13.6683189 Z M150.439354,25.9572226 C153.419653,28.3257648 156.30046,30.8168665 159.07435,33.4241086 C152.56475,32.3967133 146.068397,31.2870778 139.586846,30.0954682 C132.827474,28.8585055 125.816436,27.5503166 118.589345,26.1614045 L113.180898,28.2364628 C118.190478,29.2098884 122.910405,30.0717261 127.2742,30.8504665 C131.637996,31.6315811 135.856964,32.3557148 139.862254,33.0228674 C143.867544,33.6923942 147.728007,34.3334305 151.446018,34.91986 C155.164029,35.5062896 158.882039,36.0642286 162.597676,36.6221676 L167.194144,34.8581306 C165.737528,33.4080738 164.258213,31.9809982 162.756748,30.5774325 C161.143211,29.0593478 159.4967,27.5766965 157.818394,26.1305398 C155.946199,24.4930727 154.04737,22.8863103 152.122667,21.3108964 C150.057106,19.6513246 147.80873,17.8398034 145.308689,15.9024492 L140.11392,17.9252749 C143.589888,20.55839 147.031981,23.2359256 150.439354,25.9572226 L150.439354,25.9572226 Z M112.010413,43.8278907 C111.263447,43.4813404 110.560468,43.0469596 109.916361,42.533947 C109.370293,42.0828474 109.021285,41.6032572 108.890703,41.1094219 C108.734005,40.6203349 108.869335,40.1241253 109.287196,39.6611546 C109.728799,39.1483256 110.49092,38.6877291 111.502333,38.3126041 C113.411196,37.5813479 115.614462,37.2584555 118.112129,37.3771659 C120.607423,37.4958764 122.898534,37.9659697 125.018702,38.8064395 L112.010413,43.8278907 L112.010413,43.8278907 Z M107.551649,36.7432522 C106.022659,37.3273076 104.80469,38.0182023 103.959472,38.7826974 C103.088137,39.5661863 102.667902,40.4137787 102.729632,41.2684938 C102.8246,42.203932 103.403907,43.125125 104.424817,43.9822143 C105.706889,45.0102466 107.463804,45.9433106 109.614837,46.733922 C111.454848,47.4770493 113.615378,48.0943436 115.994335,48.5573142 C118.097884,48.9917944 120.410363,49.2505831 122.779823,49.317061 C125.125814,49.3775201 127.472451,49.224945 129.790861,48.8612129 C132.407239,48.4101133 134.776699,47.769077 136.771035,46.9808397 C138.440103,46.3635455 139.909738,45.6702766 141.144327,44.9152782 C141.884815,44.4960912 142.568603,43.9838485 143.179024,43.3910363 L138.520826,42.1184605 C138.008445,42.6131515 137.444058,43.0509694 136.837512,43.4242752 C135.792861,44.0748084 134.536904,44.6683605 133.098134,45.1906864 C130.163612,46.3184355 127.288446,46.8692519 124.475008,46.847884 C121.659197,46.824142 118.762662,46.3113129 115.785405,45.3283905 L133.810397,38.4099467 L132.124708,37.7617877 C127.559105,36.011996 123.157323,35.0551899 119.057064,34.9174858 C114.921193,34.7679107 111.086846,35.3852049 107.551649,36.7432522 L107.551649,36.7432522 Z M104.745335,54.1177108 C104.911529,55.349925 103.760038,56.453932 101.214887,57.4297318 C100.153615,57.8475925 99.0187438,58.2369627 97.8197684,58.5954682 C97.0552732,58.8138954 96.2622876,59.0180773 95.4455598,59.2032656 L78.5958014,52.7074309 C78.7335055,52.1922276 79.0943852,51.6865212 79.6689437,51.2211763 C80.3337221,50.6133789 81.3023992,50.0625625 82.5203682,49.601966 C83.6813562,49.1271243 85.1272493,48.770993 86.7393369,48.5620626 C88.1927825,48.387859 89.6594308,48.3512921 91.1197517,48.4528491 C92.6135585,48.5655421 94.0958847,48.7981728 95.5523992,49.1484922 C97.0718927,49.5378624 98.486921,49.9818394 99.7856131,50.4756748 C102.910072,51.6746501 104.574392,52.8831223 104.742961,54.1153366 L104.745335,54.1177108 Z M91.5684772,45.9124459 C89.3679449,45.8181979 87.1634043,45.9254845 84.9824225,46.232964 C82.6841886,46.5606048 80.6138787,47.0829307 78.921068,47.7595801 C77.5202849,48.2724092 76.3664195,48.8754582 75.5022076,49.5402366 C74.8682939,50.0008331 74.3887038,50.48992 74.072934,51.0003749 L59.7754499,45.4850883 L55.9007414,47.6076308 L94.1207514,62.2778657 C95.5025408,61.9929607 97.1692353,61.5751 99.1896868,61.0480257 C101.449933,60.437854 103.558231,59.7493336 105.488462,58.9895868 C107.385455,58.2891953 108.904948,57.4534738 109.961471,56.5275325 C110.913529,55.6965595 111.381248,54.791986 111.33139,53.8779157 C111.255415,52.9448517 110.666611,52.026033 109.598217,51.1784405 C108.368377,50.2145118 106.71118,49.3384289 104.700225,48.5905531 C102.616925,47.7904021 100.470257,47.1661768 98.2827391,46.7244252 C96.071127,46.2626323 93.8240474,45.9909811 91.566103,45.9124459 L91.5684772,45.9124459 Z M55.7084305,57.1377041 L78.3013995,65.8106881 C78.1209597,65.9531406 77.8977841,66.0837221 77.6342469,66.2048067 C77.316103,66.3543819 76.929107,66.5585638 76.5041236,66.7485005 C76.1171276,66.9526824 75.6232922,67.1687354 75.1270826,67.3871626 C74.6332473,67.6032156 74.1061729,67.8073975 73.6075891,67.9973342 C71.3147338,68.8908951 68.8561744,69.2796002 66.3994918,69.1369543 C63.9374375,68.9802566 61.1453682,68.2869877 57.876083,67.0334055 L43.9014912,61.6676941 L39.2005581,63.4720926 L54.1818144,69.2224259 C55.8437604,69.8658364 57.6956431,70.4332722 59.7018494,70.908114 C61.427899,71.3307231 63.3676275,71.6013829 65.3857048,71.7058481 C67.3847884,71.8150616 69.4147368,71.7129707 71.2571226,71.409072 C73.5173692,71.0315728 75.552066,70.4831306 77.2448767,69.7993585 C79.3104382,69.0134955 81.2098051,68.1635288 82.9287321,67.2589553 C84.0949008,66.6520816 85.2340223,65.9945914 86.3428441,65.2883622 L60.4093635,55.3333056 L55.7084305,57.1377041 Z M44.6944768,73.9399783 C41.5118627,73.8752947 38.3283756,73.8650049 35.1454099,73.9091136 C32.32485,73.9352299 29.5185355,74.0373209 26.7407114,74.2130123 C26.7217178,73.2562063 26.735963,72.2305482 26.7122209,71.136038 C26.6884788,70.0415278 26.6314978,68.9327724 26.5721426,67.824017 C26.5127874,66.6891453 26.4534322,65.6088804 26.3252249,64.5547318 C26.1970177,63.5005831 26.0711846,62.5580223 25.9809647,61.7080556 L20.043069,63.9872959 C20.1997667,64.6995585 20.3255998,65.5352799 20.4158197,66.5205765 C20.5107881,67.505873 20.5653949,68.5315312 20.6247501,69.6117961 C20.6817311,70.692061 20.66986,71.7723259 20.6912279,72.8668361 C20.71497,73.9613462 20.7007248,74.960888 20.6484922,75.8345968 L4.9146118,69.7946101 L-1.68697667e-14,71.682106 L35.6344968,85.3599217 L40.5491086,83.4748001 L23.6661113,76.9932106 C26.1991636,76.770044 28.7383304,76.622777 31.2801983,76.5516078 C37.0879928,76.362141 42.9007733,76.385107 48.7068894,76.6204598 C51.5108297,76.7225508 54.3005248,76.895868 57.0546068,77.1380373 L62.8168111,74.9252749 C59.9922882,74.6227434 57.1593983,74.4042197 54.3218927,74.2699933 C51.1146437,74.1099461 47.9051271,73.9991366 44.6944768,73.9376041 L44.6944768,73.9399783 Z" id="Shape" fill="#3ACCC5" fill-rule="nonzero" mask="url(#mask-4)"></path>
                    </g>
                    <path d="M48.0848467,79.8612546 C48.4742169,79.820893 48.9015745,79.7947767 49.328932,79.7686604 C48.9130057,79.7813295 48.4978767,79.8130188 48.0848467,79.8636288" id="Path" fill="#F0AA00" fill-rule="nonzero"></path>
                    <path d="M0.534196934,98.6412446 L0.536571143,98.6554898 C0.552051203,98.7809164 0.592409674,98.9019918 0.655281573,99.0116211 C0.559317723,98.8252054 0.529996009,98.6115757 0.572184272,98.4061979 L0.548442186,98.4038237 C0.535231746,98.4822294 0.531247604,98.5619122 0.536571143,98.6412446 M0.629165278,99.0686021 C0.76212096,99.3131456 1.00903865,99.5434439 1.36279573,99.7571226 L0.928315561,99.4247334 C0.81181166,99.3212014 0.711033841,99.2012278 0.629165278,99.0686021 M0.617294235,98.2257581 C0.664778407,98.1355382 0.719385205,98.0500666 0.776366211,97.9645951 C0.706900337,98.0405045 0.652871966,98.1292078 0.617294235,98.2257581 M14.7913196,84.3128957 C15.0049983,84.2582889 15.2186771,84.2321726 15.3943685,84.1941853 C15.1915124,84.223756 14.9902485,84.2633748 14.7913196,84.3128957" id="Shape" fill="#F0AA00" fill-rule="nonzero"></path>
                    <path d="M1.39603466,99.7428774 C1.24690655,99.6504184 1.1069803,99.5438836 0.978173942,99.4247334 C1.02240404,99.4716824 1.07001576,99.5153265 1.12062646,99.5553149 C1.20134955,99.6194185 1.29631789,99.681148 1.39603466,99.7405032" id="Path" fill="#F0AA00" fill-rule="nonzero"></path>
                    <path d="M2.4026991,100.57385 C2.56414528,100.640328 2.72559147,100.70918 2.90840553,100.775658 C2.64777559,100.677673 2.39187269,100.567548 2.14153615,100.445643 C2.22463346,100.488379 2.31485338,100.531115 2.4026991,100.571476 M2.14153615,100.445643 C2.00773326,100.377254 1.87846775,100.300329 1.75454015,100.215345 C1.55748084,100.096634 1.38416361,99.977924 1.23933689,99.8544652 C1.10410194,99.7431788 0.981491601,99.6173838 0.873708764,99.4793402 C0.709059352,99.3031593 0.595040954,99.0857861 0.543693769,98.8501749 C0.595926358,99.4033655 1.14199434,99.9470593 2.14153615,100.445643" id="Shape" fill="#F0AA00" fill-rule="nonzero"></path>
                    <path d="M50.2073892,79.7734089 L50.1836471,79.7449184 C50.9742586,79.7425442 51.7601216,79.7947767 52.5032489,79.9016161 C52.6813146,79.9443519 52.8973675,79.9728424 53.0754332,80.0132039 C52.8973675,79.9728424 52.6813146,79.9443519 52.5032489,79.9016161 C52.7050566,79.9324808 52.8973675,79.968094 53.0754332,80.0132039 L82.1499917,87.0076225 L53.0398201,79.9989587 C52.8510992,79.9527285 52.6601168,79.9162754 52.4676358,79.8897451 C51.7072165,79.7811434 50.9399067,79.7279792 50.1717761,79.7306731 L50.2073892,79.7734089 L50.2073892,79.7734089 Z M83.5887621,87.5845551 C83.576891,87.5821809 83.56502,87.5750583 83.5555232,87.5703099 C83.6433689,87.6177941 83.7264662,87.6605298 83.8095635,87.7127624 L83.5887621,87.5869294 L83.5887621,87.5845551 Z M85.8205182,91.9863379 L84.8257248,88.6743169 L86.3024825,93.6126708 L85.8228924,91.9863379 L85.8205182,91.9863379 Z M0.536571143,98.6554898 L0.536571143,98.6412446 C0.529683321,98.5620211 0.53287441,98.4822439 0.546067977,98.4038237 L0.538945352,98.4014495 C0.415486504,98.8240586 0.652907364,99.2561646 1.21322059,99.6265412 L1.11825225,99.5553149 C0.754998334,99.2751583 0.555564812,98.9665112 0.536571143,98.6531156 L0.536571143,98.6554898 Z" id="Shape" fill="#F0AA00" fill-rule="nonzero"></path>
                    <path d="M83.0901783,87.3566311 C83.2017661,87.3993669 83.3086055,87.446851 83.4083222,87.4943352 L83.4011996,87.491961 C83.0266957,87.2982257 82.6337968,87.1423387 82.2283406,87.0266161 L82.1499917,87.0076225 L53.0754332,80.0132039 L82.119127,87.0099967 C82.4586388,87.1192103 82.7839054,87.2331723 83.0878041,87.3566311" id="Shape" fill="#F0AA00" fill-rule="nonzero"></path>
                    <path d="M83.8095635,87.7127624 C83.7268803,87.6618017 83.642128,87.614277 83.5555232,87.5703099 L83.5246584,87.5513162 C83.4947744,87.5359039 83.4646988,87.5208661 83.4344385,87.5062063 L83.4083222,87.4943352 C83.3034394,87.4440073 83.1965075,87.3980661 83.0878041,87.3566311 C82.7691431,87.2295863 82.4460447,87.1139677 82.119127,87.0099967 L53.0754332,80.0132039 C52.8973675,79.9728424 52.6836888,79.9443519 52.5056231,79.9016161 C51.7364777,79.7929281 50.9604217,79.7405562 50.1836471,79.7449184 L50.2073892,79.7734089 C50.990878,79.7710347 51.7672443,79.8232672 52.5032489,79.9301066 C52.7050566,79.9585971 52.8973675,79.9965845 53.0754332,80.0416944 L82.1927274,87.0669777 C82.5322393,87.1738171 82.8575058,87.2877791 83.1614045,87.4112379 C83.4225675,87.5251999 83.6599883,87.6439104 83.8807897,87.7673692 C83.952016,87.7958597 83.9900033,87.8385955 84.0612296,87.8647118 C84.1561979,87.9264412 84.2392952,87.9905448 84.3223925,88.0546485 C84.1961464,87.9463307 84.0611465,87.8486543 83.9187771,87.7626208 L83.9140287,87.7602466 L83.9021576,87.753124 C83.870943,87.7386542 83.8392704,87.7251934 83.8071893,87.7127624 L83.8095635,87.7127624 Z" id="Path" fill="#F0AA00" fill-rule="nonzero"></path>
                    <path d="M53.0754332,80.0132039 C52.8874796,79.9671229 52.6972952,79.9306709 52.5056231,79.9039903 C52.6836888,79.9443519 52.8973675,79.9728424 53.0754332,80.0132039 L53.0754332,80.0132039 Z" id="Shape" fill="#F0AA00" fill-rule="nonzero"></path>
                    <path d="M53.0398201,80.0013329 L82.1499917,87.0052483 L82.2259663,87.0242419 L82.2283406,87.0242419 C82.3874125,87.0717261 82.5369877,87.1239587 82.6865628,87.1761913 C82.5110844,87.1116016 82.3337325,87.0522204 82.1547401,86.9981256 L53.0398201,79.9728424 C52.8593802,79.9324808 52.6457014,79.9016161 52.4676358,79.8612546 C51.6993144,79.7523014 50.9240282,79.699928 50.148034,79.7045568 L50.1717761,79.7306731 C50.9552649,79.7306731 51.7316311,79.7829057 52.4676358,79.8897451 C52.6670693,79.9182356 52.8593802,79.9562229 53.0398201,80.0013329" id="Path" fill="#3ACCC5" fill-rule="nonzero"></path>
                    <path d="M85.8228924,91.9863379 L86.3024825,93.6126708 L84.8257248,88.6743169 L85.8228924,91.9863379 Z M30.6035488,102.352133 L27.3413862,101.915278 L8.76557814,99.4223592 L23.082056,93.9260663 L23.1366628,93.9331889 L39.5828057,95.8657947 L41.3397201,98.031073 L41.304107,98.0738087 L24.5896784,96.1055898 L18.2600383,98.5344052 L49.7444185,102.967053 L48.429107,101.376333 C48.270035,101.191145 48.2629124,100.989337 48.4124875,100.804149 C48.5361869,100.662276 48.690411,100.55026 48.8635871,100.476508 C49.6209597,100.120377 50.9291486,100.023034 52.0046651,100.239087 C52.1043819,100.258081 52.196976,100.284197 52.2895701,100.310313 C52.3180606,100.317436 52.3489254,100.322184 52.3797901,100.334055 L52.4343969,100.345926 C52.5103715,100.372043 52.5815978,100.398159 52.6480756,100.429024 C52.6955598,100.445643 52.743044,100.459888 52.7857797,100.478882 C53.0018327,100.578599 53.1656531,100.692561 53.2629957,100.818394 L55.6039653,103.698309 L57.3513829,105.882581 L57.3608797,105.892078 L57.3964928,105.932439 L57.3822476,105.932439 L40.6345801,103.69356 L34.851008,102.921943 L31.4558897,102.466095 L30.6035488,102.352133 L30.6035488,102.352133 Z M43.5168694,94.7974009 C43.2034738,94.4199017 43.5097468,94.013912 44.2908614,93.7622459 C44.8203099,93.6007997 45.4945851,93.5248251 46.175983,93.5485671 L47.1137954,93.6601549 C47.4034489,93.7218844 47.6598634,93.8026075 47.8735422,93.8975758 L47.9328974,93.9331889 C47.9637621,93.9474342 47.9898784,93.9640536 48.0183689,93.9806731 C48.0705612,94.008069 48.1212807,94.0381837 48.1703182,94.070893 C48.2415445,94.1254998 48.3032739,94.1801066 48.3483839,94.2370876 L50.762954,97.2001 C51.1831889,97.7176774 50.4305648,98.2613712 49.0867627,98.4156948 C48.9274244,98.4338101 48.7674389,98.4456902 48.6071726,98.4513079 C48.3010072,98.458076 47.9947488,98.4430011 47.6907281,98.4061979 L47.6693602,98.4061979 C47.524434,98.3882183 47.3802838,98.3644573 47.2372542,98.3349717 C46.6270826,98.213887 46.1593635,98.0073309 45.9314395,97.758039 L43.5168694,94.7974009 L43.5168694,94.7974009 Z M15.3943685,84.1918111 C15.2163029,84.2321726 15.0049983,84.2606631 14.7913196,84.3128957 C14.9765078,84.2630373 15.1806898,84.2226758 15.3943685,84.1941853 L15.3943685,84.1918111 Z M49.328932,79.7710347 C48.9015745,79.7947767 48.4742169,79.820893 48.0848467,79.8612546 C48.4884622,79.8137704 48.9063229,79.7829057 49.328932,79.7710347 Z M54.4382289,84.6476591 L54.5284489,84.7521243 L54.6115462,84.8162279 L54.8560896,85.010913 L54.8560896,85.0394035 C54.9035738,85.1058814 54.9296901,85.1747334 54.9391869,85.2435855 C54.9700516,85.4477674 54.8323476,85.6472009 54.5521909,85.818144 L54.4975841,85.8442602 C54.0108714,86.1220427 53.1846468,86.285863 52.3061896,86.273992 L52.2515828,86.273992 C52.1335099,86.2709576 52.0155448,86.264624 51.8978257,86.2549983 L51.7173859,86.2360047 C51.4752166,86.2122626 51.2425442,86.1742752 51.0312396,86.1220427 L48.9086971,86.9363962 C47.951891,87.3115212 46.3730423,87.3115212 45.3806231,86.9363962 C45.3695229,86.932497 45.3584431,86.92854 45.3473842,86.9245252 L44.5828598,86.2383789 C44.5805148,86.0484422 44.7229673,85.8656281 44.9936271,85.7089304 C45.0978855,85.6498072 45.206645,85.5989998 45.3188937,85.556981 L52.7406698,82.7079307 L53.9420193,84.0778491 L54.0322393,84.1775658 L54.4382289,84.6476591 L54.4382289,84.6476591 Z M44.8298067,92.1667777 C44.4370737,92.2773007 44.0316514,92.3363583 43.6237088,92.3424692 L43.5382373,92.3424692 C43.4013588,92.3467972 43.2643777,92.3467972 43.1274992,92.3424692 L43.1013829,92.340095 C42.0970926,92.2878624 41.258997,92.0148284 40.9550983,91.6444518 L38.0324475,88.1329973 L39.1269577,87.7127624 C39.4118627,87.6035488 39.767994,87.5228257 40.15499,87.4824642 C40.2812356,87.4674142 40.4079224,87.4563291 40.5348634,87.4492253 C41.3943269,87.4017411 42.2680357,87.5275741 42.8330973,87.7863629 L42.8473426,87.7911113 C43.036272,87.8662982 43.205278,87.9841148 43.3411779,88.1353715 L45.7557481,91.0983839 C46.1000083,91.4972509 45.7225092,91.9317311 44.8298067,92.1667777 L44.8298067,92.1667777 Z M69.5263246,101.981756 C69.5500666,102.371126 68.9660113,102.724883 68.0448184,102.879207 C67.9783406,102.891078 67.9166111,102.905323 67.8453849,102.91482 C67.5132329,102.957562 67.1781743,102.973441 66.8434688,102.962304 C66.0101216,102.945685 65.2456265,102.772368 64.8040237,102.496959 L64.7660363,102.473217 L64.7565395,102.468469 C64.6952101,102.424714 64.6394056,102.373693 64.5903449,102.316519 L63.2750333,100.835013 C63.1183356,100.611838 63.1729424,100.376791 63.4317311,100.170235 C63.4418135,100.162057 63.4521052,100.15414 63.4625958,100.146493 C63.4934605,100.120377 63.5338221,100.096634 63.5694352,100.072892 C64.2579557,99.6194185 65.786946,99.4722176 66.9787987,99.7452516 C67.1782323,99.7927358 67.3610463,99.8473426 67.5248667,99.9114462 C67.6910613,99.9802982 67.8335138,100.056273 67.9427274,100.141744 L67.9451016,100.141744 C67.9617211,100.15599 67.9854632,100.165487 68.0020826,100.179732 C68.0020826,100.205848 68.0020826,100.208222 68.0353216,100.220093 L69.4218594,101.701599 C69.4809479,101.774139 69.5172905,101.862517 69.5263246,101.95564 L69.5263246,101.981756 L69.5263246,101.981756 Z M62.7075975,94.104132 L63.3272659,94.8306398 L65.3690853,97.0267827 C65.5064704,97.1972304 65.5064704,97.4403904 65.3690853,97.6108381 C65.2958045,97.6961923 65.2092179,97.7691495 65.1126708,97.826891 L65.0533156,97.8625042 C65.008457,97.8889408 64.9625158,97.9134956 64.9156115,97.9361046 C64.5491556,98.1036869 64.1578082,98.2103451 63.7569977,98.2518744 C62.4440603,98.4228174 61.0029157,98.1497834 60.539945,97.644077 L60.5375708,97.6393286 L59.2317561,96.1839387 L57.944935,94.719052 C57.6576558,94.4127791 57.7953599,94.0780157 58.3105631,93.8239753 C58.4102799,93.7717428 58.5242419,93.7218844 58.6477008,93.6767744 C58.8993669,93.5889287 59.196143,93.5200766 59.5214095,93.4797151 C60.6681523,93.342011 61.9193602,93.5366961 62.5105382,93.94506 L62.577016,93.9972926 C62.6245002,94.0329057 62.6696101,94.0685188 62.7075975,94.104132 L62.7075975,94.104132 Z M60.1434522,91.2170943 C60.1491783,91.3048979 60.1267199,91.3922362 60.0793486,91.4663862 C60.0585309,91.5112141 60.031342,91.5527971 59.9986255,91.5898451 L59.9653865,91.6254582 C59.8902979,91.698725 59.80467,91.7603451 59.7113462,91.8082722 L59.6092552,91.8652532 C59.5303298,91.9027004 59.4494958,91.935985 59.367086,91.96497 L59.3575891,91.9697184 L59.3504665,91.9697184 L59.3053565,91.9887121 L59.2032656,92.0172026 L59.0916778,92.0528157 L58.9112379,92.1002999 L58.8020243,92.1192936 C58.5306881,92.1755662 58.2551003,92.2089227 57.9781739,92.2190103 L57.944935,92.2190103 C56.7625791,92.2712429 55.6395785,91.9982089 55.2430856,91.5637288 L52.6148367,88.6292069 L52.5792236,88.6149617 C52.47001,88.4962512 52.4225258,88.3727924 52.4415195,88.2493336 C52.5174942,87.8575891 53.1917694,87.5251999 54.1580723,87.4041153 C55.4353965,87.2331723 56.8456764,87.4967094 57.3062729,87.9881706 L57.341886,88.0285322 L58.1087554,88.880873 L58.1277491,88.8998667 L58.8376375,89.688104 L60.038987,90.963054 C60.1030906,91.0461513 60.1363296,91.1292486 60.1434522,91.2170943 L60.1434522,91.2170943 Z M82.1927274,87.0646035 L53.0754332,80.0416944 C52.887538,79.9947417 52.6973494,79.9574964 52.5056231,79.9301066 C51.7443844,79.8219662 50.9762613,79.7695942 50.2073892,79.7734089 L50.1836471,79.7734089 L50.1504082,79.7306731 L50.148034,79.7306731 C49.886871,79.7306731 49.6257081,79.7401699 49.3645452,79.7544152 C48.9486087,79.7668937 48.533471,79.7985836 48.1204598,79.8493835 L15.7504998,84.1395785 L15.4299817,84.1775658 C15.2163029,84.2108047 15.0144952,84.2511663 14.8269327,84.3010247 L14.7010996,84.3342636 C14.5657697,84.3722509 14.4304399,84.4173609 14.29511,84.4482256 C14.0553376,84.5178785 13.8192039,84.5994952 13.5875958,84.6927691 C13.1269993,84.8589637 12.702016,85.0417777 12.3173942,85.2364628 C12.2105548,85.3029407 12.0704765,85.3575475 11.928024,85.4406448 L0.859463512,97.8814978 C0.826224592,97.9052399 0.802482506,97.9361046 0.776366211,97.9622209 C0.71857665,98.0471005 0.665473329,98.1350776 0.617294235,98.2257581 C0.603741662,98.2645938 0.592640194,98.3042419 0.584055315,98.3444685 L0.576932689,98.3872043 L0.572184272,98.4061979 C0.531474238,98.6110908 0.56161298,98.8237364 0.657655781,99.0092469 C0.734938678,99.1682157 0.84402925,99.3096294 0.978173942,99.4247334 C1.05343207,99.4964407 1.13269985,99.5638183 1.2155948,99.6265412 C0.652907364,99.2537904 0.415486504,98.8240586 0.538945352,98.4014495 L0.515203266,98.3990753 C0.494177104,98.4764024 0.484578602,98.5563899 0.486421381,98.6364962 L0.489086971,98.6744835 C0.508106624,98.8042497 0.549901852,98.9296353 0.612545818,99.04486 L0.629165278,99.0686021 C0.710169348,99.2011678 0.81015622,99.321152 0.925941353,99.4247334 L1.36279573,99.7571226 L19.8768744,110.958639 C20.1237921,111.101091 20.4134455,111.229299 20.7387121,111.345635 C20.8906614,111.407364 21.0592303,111.464345 21.2420443,111.511829 C22.1133789,111.758747 23.1152949,111.92969 24.1741919,112.010413 L42.408114,112.817644 L46.7837804,113.012329 L58.1253749,113.510913 C58.9296789,113.503938 59.7328294,113.448439 60.5304482,113.344718 C60.6349134,113.332847 60.7393785,113.323351 60.8414695,113.309105 C60.8723342,113.304357 60.9008247,113.297234 60.9316894,113.29486 C61.0537795,113.275572 61.1756624,113.254994 61.2973176,113.233131 L61.7175525,113.154782 C61.9679354,113.108168 62.2159311,113.049536 62.4606798,112.97909 C62.6031323,112.924484 62.8168111,112.869877 62.9592636,112.81527 L86.9933772,103.589095 C87.2830307,103.472759 87.5536904,103.351674 87.8053565,103.223467 C88.5057481,102.862587 88.8666278,102.423359 88.8262662,101.969885 C88.8166554,101.902881 88.7982965,101.837428 88.7716594,101.7752 L86.5873875,94.3676691 L84.8993252,88.7289237 C84.7566437,88.4653378 84.5591009,88.2354109 84.3200183,88.0546485 C84.2368202,87.987263 84.1504595,87.9238789 84.0612296,87.8647118 C83.9900033,87.8362213 83.952016,87.7958597 83.8807897,87.7697434 C83.6473697,87.6378553 83.4072505,87.5181919 83.1614045,87.4112379 C82.8427884,87.2840746 82.5196857,87.1684545 82.1927274,87.0646035 L82.1927274,87.0646035 Z" id="Shape" fill="#3ACCC5" fill-rule="nonzero"></path>
                </g>
            </g>
        </g>
        <g id="Argo" transform="translate(-0.350000, 181.750000)">
            <polygon id="Path" fill="url(#linearGradient-5)" fill-rule="nonzero" transform="translate(285.462229, 310.619054) scale(-1, 1) translate(-285.462229, -310.619054) " points="170.754995 537.229965 0 474.249151 2.90805044e-13 171.162404 169.09621 234.355401 570.924459 84.0065276 569.49621 387.285896"></polygon>
            <g id="Group-2" transform="translate(0.478248, 0.000000)">
                <polygon id="Path" fill="#0D0D28" fill-rule="nonzero" points="0 84.2637863 401.111375 234.355401 570 171.157561 570 150.091614 168.888625 0 0 63.1978397"></polygon>
                <path d="M168.888625,21.0659466 L168.888625,0 M569.97926,171.162404 L168.88625,21.0683138 L0,84.2637863" id="Shape" stroke-opacity="0.5" stroke="#00ABE8" stroke-width="0.4"></path>
                <path d="M0,63.1978397 C0,63.1978397 401.35,213.632104 401.35,213.632104 L570,150.091614 M401.35,213.374508 L401.35,234.539286" id="Shape" stroke="#00ABE8"></path>
                <polygon id="Path" stroke="#00ABE8" points="0 84.2637863 401.111375 234.355401 570 171.157561 570 150.091614 168.888625 0 0 63.1978397"></polygon>
                <g id="argo-logo" transform="translate(135.375000, 55.139801)">
                    <g id="Clipped">
                        <mask id="mask-7" fill="white">
                            <use xlink:href="#path-6"></use>
                        </mask>
                        <g id="c8myvb6scj"></g>
                        <path d="M66.264875,32.4120621 C64.769937,32.3089772 63.2773203,32.1748052 61.788,32.0096336 C58.4155,31.6285102 55.857625,30.5869306 55.0715,29.2731201 C54.793625,28.8470193 54.6155,28.4138169 54.361375,27.9877162 C54.285375,27.859886 54.42075,27.6563045 53.981375,27.6278978 C53.648875,27.6065928 53.496875,27.7817675 53.302125,27.8835582 C52.66325,28.2528455 51.976875,28.6102967 51.235875,28.9511773 C48.955875,29.8909661 47.991625,31.1905733 48.656625,32.4333671 C48.868,33.1056594 49.829875,33.7045676 51.292875,34.0785894 C54.49675,34.8242657 58.593625,34.7508816 61.662125,33.8868441 C63.039625,33.5080878 64.108375,32.965993 65.721,32.7032309 C66.036875,32.6558864 66.250625,32.5398923 66.26725,32.4120621 L66.264875,32.4120621 Z M81.36275,31.5764312 C85.801625,33.3731559 93.2615,33.4276022 98.02575,31.699527 L98.40575,31.5574934 C103.20325,29.7844409 103.400375,26.8845887 98.8475,25.0783951 L98.669375,25.0097455 C94.00725,23.2248569 86.4025,23.2295914 81.597875,25.01448 C76.800375,26.7591258 76.543875,29.6400401 81.027875,31.448601 L81.360375,31.5764312 L81.36275,31.5764312 Z M55.93125,21.8471312 C60.55775,23.6698955 68.22425,23.6840988 73.055,21.8850069 C77.888125,20.0859149 78.054375,17.1529215 73.43025,15.3325245 C73.3765073,15.311773 73.3226735,15.2912568 73.26875,15.2709767 C68.810875,13.4553141 61.291625,13.3890318 56.47275,15.1242086 L56.285125,15.1952254 C51.148,17.1434526 51.00075,19.9438813 55.93125,21.8471312 Z M120.210625,35.6717327 C121.626125,35.1462084 122.951375,34.5828086 124.184,33.991002 C125.039,33.5767374 125.875,33.1530039 126.642125,32.715067 C137.239375,26.6549678 138.749875,20.2113779 132.432375,13.538167 C128.808125,9.70799493 122.07025,6.72055538 113.304125,4.47169042 C96.22075,0.0970562771 78.097125,-0.182276423 59.391625,3.13894203 C52.242875,4.40777531 46.490625,6.41281596 41.488875,8.74453384 C37.703125,10.4868124 34.7415,12.4658135 32.739375,14.5915827 C30.036625,17.6145307 29.091375,20.8173878 29.9725,23.9729004 C30.198125,25.035785 30.772875,26.0797318 31.6825,27.0834358 C32.21925,27.6657734 32.3,27.6752423 33.413875,27.2444071 C34.154875,26.9840122 34.8555,26.7023123 35.511,26.4087763 C39.5105,24.4581818 44.00875,22.6803949 48.461875,20.8884046 C49.126875,20.6564164 49.421375,20.3084342 49.226625,19.9770225 C48.6495,18.8880984 48.822875,17.754197 49.725375,16.6889452 C52.276125,13.8246014 59.895125,12.072854 67.637625,12.5699715 C68.55675,12.6812311 69.5685,12.5581354 70.169375,12.2645993 C70.794,11.99947 71.504125,11.7627473 72.283125,11.5639003 C78.049625,9.85713019 85.39075,9.14932953 92.503875,9.6062042 C97.610125,9.87370077 102.3435,10.7495745 106.0295,12.1107296 C108.091,12.9392588 109.81525,13.8790476 111.147625,14.9040566 C116.120875,18.402817 114.40375,23.2177553 107.141,25.9921444 C106.0865,26.3472284 105.5735,26.8798543 105.794375,27.4053785 C106.3335,28.7949403 105.545,30.2223778 103.57375,31.4225615 C99.738125,33.6288164 94.373,34.6656615 87.52825,34.2750692 C85.82775,34.1330356 84.056,34.3792271 82.954,34.9047513 C82.7425922,34.9905548 82.528754,35.0702844 82.31275,35.1438412 L75.622375,37.4968641 C72.89825,38.4532235 69.822625,39.2557132 67.28375,40.2949256 C66.326625,40.6855179 66.302875,40.6902523 67.5925,40.8488565 C73.69625,41.6063689 80.16575,41.8667638 86.58775,41.6205723 C99.419875,41.1447598 110.734375,39.3480351 120.210625,35.6740999 L120.210625,35.6717327 Z M125.122125,7.01172421 C126.8725,7.80711224 128.499375,8.64274311 129.995625,9.51151515 C135.65525,12.9842361 138.279625,16.8191426 138.678625,20.9049752 C139.004,24.5883793 136.553,28.2504783 131.615375,31.448601 C130.575125,32.1469327 130.0645,32.767146 131.404,33.4986189 C132.147375,33.9034146 131.358875,34.315312 130.53475,34.6348876 C127.663375,35.7427494 124.775375,36.8435097 121.88975,37.9490043 L116.481875,40.0108584 C114.890625,40.6145011 113.840875,40.6334389 112.328,40.0345307 C111.413625,39.6770795 110.506375,39.7480963 109.51125,39.954045 C106.692125,40.5458515 103.756625,41.0500707 100.73325,41.4619681 C89.642,42.9604223 78.48425,42.9769929 67.281375,41.8738655 C66.7466905,41.8199825 66.2123074,41.7631682 65.67825,41.7034252 C63.95875,41.5164143 63.894625,41.5211488 63.148875,42.1531982 C62.31525,42.8538972 62.360375,43.6587541 63.27,44.3357808 C64.022875,44.9512596 65.09875,45.4933545 65.96325,46.0827938 C66.2158619,46.2108618 66.4304016,46.4026626 66.5855,46.639092 C65.927625,46.6698659 65.5975,46.4923239 65.1985,46.3905332 C63.2985,45.9099863 61.253625,45.5075578 59.676625,44.8565706 C59.0906658,44.6601009 58.5380967,44.3759404 58.037875,44.013838 C57.743375,43.7439742 57.396625,43.7463415 56.779125,43.9049456 C55.187875,44.3310464 53.691625,44.8068588 52.309375,45.3323831 C49.492625,46.3597593 46.514375,47.3137515 43.586,48.2914159 C40.743125,49.2383064 40.605375,49.3708711 42.282125,50.6657438 C43.1015,51.2977933 43.920875,51.9298427 44.704625,52.5666265 C44.899375,52.7252307 45.1915,52.8862021 45.027625,53.0874163 C44.600125,53.1181903 44.438625,52.9856256 44.224875,52.9027727 C42.054125,52.0789779 39.881,51.2575504 37.73875,50.4242868 C35.456375,49.5342097 35.456375,48.5873192 37.612875,47.633327 C40.766875,46.2390307 43.882875,44.8328983 47.008375,43.4291331 C47.160375,43.3462802 47.3005,43.2634273 47.431125,43.1782072 C45.260375,43.8173583 43.203625,44.5109555 41.270375,45.2542646 C38.814625,46.1135677 36.525125,47.0438877 34.173875,47.9458009 C33.04575,48.2772125 32.748875,48.8761208 33.49225,49.3306282 C34.466,50.1662591 35.29725,51.0279295 37.213875,51.65051 C37.82425,51.8967015 38.235125,52.2091754 38.401375,52.5453215 C38.4655,52.6258072 38.577125,52.7228635 38.382375,52.7844114 C38.1894328,52.8310272 37.9862289,52.8092668 37.807625,52.7228635 C35.01225,51.5842276 31.741875,50.6183993 29.276625,49.3614022 C28.08675,48.7932679 27.96325,47.9907782 28.967875,47.3587288 C30.090532,46.6418868 31.2795045,46.0338888 32.5185,45.5430662 C35.109625,44.3949615 37.764875,43.270529 40.394,42.1366276 C40.698,42.0395713 40.8785,41.8975377 40.89275,41.7460353 C40.48425,41.7910126 40.13275,41.8880688 39.8905,42.0206335 C35.625,43.6492852 31.36425,45.2803041 27.105875,46.911323 C25.372125,47.5741463 25.077625,48.0996706 26.1155,48.9495048 C27.457375,50.050265 29.06525,51.096579 30.6755,52.1405258 C31.038875,52.372514 31.45925,52.5997677 30.886875,52.874366 L22.759625,49.7638306 C22.574375,49.6596727 22.403375,49.5531475 22.208625,49.453724 C19.57475,48.104405 19.477375,47.1338423 21.8405,45.7537493 C22.23,45.5264956 22.629,45.3039763 23.020875,45.0790899 L26.953875,42.8160215 C26.1583155,42.8952901 25.3699309,43.0345666 24.5955,43.2326534 C22.4485,43.7747482 20.35375,44.3452497 18.183,44.8707739 C15.5761091,45.493242 12.8546673,45.4582573 10.26475,44.7689832 L8.53575,44.3239447 L0.4085,41.2134094 C1.427375,41.0169296 2.18025,41.2607539 2.95925,41.4311942 C5.540875,42.0585091 8.227,42.621909 10.998625,43.1166593 C12.3405,43.3533819 13.93175,43.2657945 15.067,42.8917728 C17.259125,42.2478872 18.931125,41.419358 20.79075,40.6571112 C21.204,40.4487953 21.56025,40.226276 21.852375,39.9895534 C21.4324572,40.0171469 21.0176095,40.0966642 20.617375,40.226276 C19.182875,40.6831507 17.765,41.1494942 16.33525,41.6087361 C14.53975,42.2762939 11.7895,42.3757175 9.744625,41.8501932 C9.12497032,41.7080754 8.51495966,41.5270153 7.91825,41.3080984 C5.45775,40.3754113 3.02575,39.4332552 0.596125,38.4910991 C0.382375,38.4082462 0.030875,38.3395967 0.235125,38.1312808 C1.38522659,38.2344837 2.52167409,38.4550007 3.626625,38.7893697 C5.189375,39.2580805 6.856625,39.6747123 8.607,40.0368979 C10.95825,40.5458515 12.008,40.4866709 13.9175,39.7220568 C17.966875,38.0957724 21.814375,36.3961039 26.068,34.8455707 C26.906375,34.5378313 27.70675,34.2182557 28.526125,33.9057819 C27.842125,34.0762222 27.196125,34.2679675 26.588125,34.4786506 C22.5435,35.9226586 18.346875,37.3003843 14.0695,38.6449689 C11.55675,39.430888 9.43825,39.4214191 6.951625,38.6686411 C4.99329996,38.020461 3.07357119,37.2617219 1.20175,36.3961039 C0.627,36.2232964 0.206625,35.9842065 0,35.7143427 C0.477375,35.6740999 0.7695,35.7735234 1.085375,35.8350713 C3.184875,36.2469686 5.26775,36.6707021 7.3815,37.0707634 C8.607,37.3548305 10.200625,37.2506726 11.1435,36.8269391 C11.495,36.6991089 11.84175,36.5665442 12.16,36.4245106 C15.105,35.1107 18.185375,33.844234 21.28475,32.5825024 C21.975875,32.3031697 22.640875,32.0096336 23.263125,31.7066287 C23.999375,31.3468103 23.97325,30.9964608 23.120625,30.7715743 C20.49625,30.0803442 18.798125,29.1003125 17.27575,28.0634674 C17.08575,27.93327 16.72475,27.8243776 16.883875,27.6136944 C17.477625,27.6894457 18.03575,27.7959709 18.536875,27.9356372 C19.890625,28.278885 21.306125,28.58189 22.7715,28.8470193 C24.63825,29.1807982 26.792375,29.2021033 28.725625,28.9038328 C30.022375,28.7049857 30.383375,28.4540598 30.008125,28.0350607 C26.83275,24.4889558 26.697375,20.8647323 28.5855,17.1931644 C29.69225,15.0626608 31.71575,13.01501 34.5705,11.1306979 C35.3685,10.5957048 35.223625,10.3566149 34.048,10.0417738 C32.463875,9.62040756 32.264375,9.37895048 32.919875,8.68061873 L48.485625,2.72467744 C50.46875,2.44771196 50.908125,2.48558758 52.29275,3.05845634 C53.283125,3.46798649 53.3995,3.46325203 54.73425,3.1626143 C63.6990121,1.14002659 72.8555137,0.0813490043 82.04675,0.00473445254 C93.8505,-0.108892408 104.497625,1.27120051 114.382375,3.59108225 C116.814375,4.19709218 119.149,4.85991553 121.372,5.57481787 L125.1245,7.00935698 L125.122125,7.01172421 Z" id="Shape" fill="#EF7B4D" fill-rule="nonzero" mask="url(#mask-7)"></path>
                    </g>
                    <g id="Clipped" transform="translate(225.701000, 80.045389)">
                        <mask id="mask-9" fill="white">
                            <use xlink:href="#path-8"></use>
                        </mask>
                        <g id="ss1nubilal"></g>
                        <path d="M14.926875,12.9652983 C19.928625,14.9703389 28.298125,15.0176835 33.618125,13.0694562 C33.69175,13.045784 33.763,13.0173773 33.831875,12.9889705 C39.32525,10.922382 39.104375,7.75740049 33.9245,5.70738254 C28.830125,3.71181079 20.398875,3.69760743 15.0955,5.67897582 C9.792125,7.66034421 9.6235,10.8868736 14.7155,12.8848126 L14.926875,12.9652983 Z M39.32525,16.8380805 C35.6915,17.6855475 31.88675,18.3791448 27.626,18.5708901 C18.878875,18.9662169 11.492625,17.9459424 5.757,15.4248464 C-2.918875,11.5591659 -1.645875,5.68371027 8.599875,2.30094393 C17.21875,-0.544462042 29.727875,-0.776450216 38.795625,1.74464576 C49.183875,4.64449794 51.834375,10.1577679 44.878,14.385634 C44.3745,14.7004751 43.825875,15.0058473 43.29625,15.3183212 L39.32525,16.8380805 Z" id="Shape" fill="#EF7B4D" fill-rule="nonzero" mask="url(#mask-9)"></path>
                    </g>
                    <path d="M203.601625,78.8452054 C208.593875,80.8455116 216.949125,80.8952233 222.264375,78.9540978 L222.592125,78.831002 C228.092625,76.7312723 227.68175,73.5591891 222.606375,71.5801879 C217.504875,69.582249 209.068875,69.5727801 203.767875,71.5565157 C198.4645,73.5449857 198.303,76.7715152 203.4045,78.7670869 L203.601625,78.8428381 L203.601625,78.8452054 Z M221.927125,85.0639088 C218.68525,86.2924992 215.555,87.5684342 212.070875,88.6976011 C206.394625,90.6055855 198.71625,91.3725668 191.417875,90.7594552 C185.119375,90.2931116 179.823125,89.1260691 176.189375,87.0878872 C173.762125,85.693591 172.34425,84.0744082 172.080625,82.3936775 C171.771875,81.1153754 172.25875,79.825237 173.500875,78.6250533 C175.05175,77.1810453 178.8755,76.7880857 182.088875,77.7042023 C183.19325,78.0474501 183.822625,78.5658727 183.7965,79.1150692 C183.901,79.7636892 183.34525,80.3815352 183.18375,81.0159519 C182.40475,84.0365326 187.632125,86.6972949 195.7855,86.7754134 C200.514125,86.8227579 204.1455,86.0036976 207.157,84.668582 C207.591625,84.4792039 207.51325,84.3300686 206.90525,84.2495829 C206.138125,84.1477922 205.33775,84.0815099 204.57775,83.9726175 C192.014,82.2658473 185.608625,76.9608933 190.2755,72.1270172 C194.942375,67.2907739 208.90975,64.7531074 221.475875,66.4622447 C223.725,66.7676169 225.83875,67.2008193 227.745875,67.7452814 C233.928,69.582249 237.364625,71.9873509 237.473875,75.0174005 C237.640125,77.3893612 235.334,79.7045085 231.061375,81.4562559 C228.116375,82.6943153 225.0075,83.873194 221.927125,85.0639088 L221.927125,85.0639088 Z M147.1645,57.2490001 C152.543875,59.3108542 160.262625,59.3179559 165.6325,57.2679379 C171.045125,55.2013494 171.28975,52.0411023 166.18825,50.0763045 C160.89675,48.0594277 152.2945,48.0499588 146.80825,50.0573667 C141.661625,52.0221645 141.818375,55.2013494 147.1645,57.2490001 M167.368625,62.4024517 C164.8535,63.3659128 162.376375,64.34121 159.816125,65.2833661 C157.624,66.0527146 154.244375,66.0053701 152.27075,65.1792081 C152.033462,65.0827698 151.806003,64.9638638 151.5915,64.8241242 C151.128375,64.4974469 150.957375,64.1234252 151.099875,63.7541379 C151.413375,62.8474902 151.323125,62.7977785 149.0265,62.5231802 C137.275,61.046031 130.28775,56.4701827 132.622375,51.7854419 C136.066125,45.4649477 155.550625,42.3047007 169.662875,45.7821561 C181.438125,48.6820082 184.302375,54.2804984 176.322375,58.7971661 C174.816625,59.5617802 173.120875,60.2719481 171.26125,60.9158336 L167.368625,62.4024517 M170.380125,63.4535002 C172.417875,62.6723155 174.436625,61.8887636 176.49575,61.1146806 C184.832,58.0065125 197.640375,57.5354345 207.145125,59.9878809 C208.829,60.3690043 210.27775,60.8874269 211.396375,61.5005385 C212.721625,62.1988702 212.64325,63.1575969 211.201625,63.839358 C209.847875,64.5021814 207.594,64.7862485 205.506375,64.5613621 C204.389528,64.4670113 203.287794,64.2413468 202.224125,63.8890698 C197.163,62.0426333 189.0785,62.1373224 184.16225,64.1021202 C180.065375,65.6526534 175.99225,67.2126555 171.912,68.7679231 C171.09975,69.0874987 170.17825,69.3597297 169.176,69.5846162 C167.162,70.0675304 164.559,69.9444346 162.9535,69.2934474 C161.112875,68.7087425 160.69725,67.688468 161.97975,66.8978144 C162.50225,66.5356288 163.16725,66.2018499 163.948625,65.9130483 C166.098,65.0963552 168.237878,64.2749277 170.380125,63.4535002 M49.673125,9.2724253 C54.6906285,7.30181549 59.9180037,5.91029345 65.253125,5.12504487 C74.240125,3.75678809 84.075,3.49165875 93.38025,4.36989969 C94.418125,4.47642488 95.125875,4.84097772 95.09975,5.25524232 C95.095,5.461191 94.72925,5.51563721 94.346875,5.57718509 C92.8964271,5.78304355 91.4256256,5.8045203 89.96975,5.6411002 C82.37925,4.91909619 74.933625,5.25050787 67.632875,6.27078239 C61.522,7.10641326 56.01675,8.49834231 51.59925,10.3282082 C46.0085,12.5912765 42.28925,15.4343153 40.92125,18.4880372 C40.8405,18.8147144 40.54125,19.1271883 40.052,19.4017865 C39.7385,19.5556562 39.558,19.7876444 38.900125,19.7379326 C38.263625,19.7024242 37.71975,19.5485545 37.446625,19.3260353 C37.194875,19.103516 37.126,18.8573245 37.2495,18.6158674 C38.306375,15.7680942 41.32975,13.067089 46.010875,10.7945518 C47.3005,10.179073 48.898875,9.67248654 49.673125,9.27005807 M98.70025,4.89068947 C99.60275,4.53087108 101.087125,4.51193327 102.01575,4.85281385 L102.068,4.87411889 C102.97525,5.32389188 102.85175,5.97251188 101.77825,6.3796748 C101.17975,6.62113188 98.686,6.52644283 97.971125,6.23764122 C97.166,5.91333122 97.46525,5.3617675 98.70025,4.88832225 M63.29375,16.8759561 C64.7425,16.2817823 67.153125,16.2415394 68.687375,16.7836343 C70.321375,17.3517686 70.4235,18.3223313 68.915375,18.9591152 L68.820375,18.9969908 C67.347875,19.5816957 64.930125,19.6077352 63.424375,19.051437 C63.3653976,19.0295689 63.3068055,19.0066823 63.248625,18.9827875 C61.738125,18.4856699 61.5885,17.6050618 62.916125,17.0179897 C63.0325,16.9682779 63.158375,16.9209334 63.291375,16.8759561 M89.034,28.8493865 C87.5235,28.3333312 87.411875,27.4385197 88.784625,26.8514476 C88.9159201,26.7959917 89.0498738,26.7470097 89.186,26.7046795 C90.689375,26.1602175 93.00975,26.1389125 94.5345,26.657335 C96.159,27.253876 96.189875,28.2481111 94.60575,28.8801605 C93.10475,29.4601309 90.675125,29.4719671 89.178875,28.9062 C89.1309669,28.8882954 89.0834556,28.8693531 89.036375,28.8493865" id="Shape" fill="#EF7B4D" fill-rule="nonzero"></path>
                </g>
            </g>
        </g>
        <g id="m3" transform="translate(441.602363, 349.050000)">
            <polygon id="Path" fill="url(#linearGradient-10)" fill-rule="nonzero" points="1.20123153 386.178371 -2.92714449e-13 84.0554007 169.396781 147.122452 337.896781 84.3466511 337.896781 386.178371 169.027205 448.908386"></polygon>
            <g id="Group-2">
                <polygon id="Path" fill-opacity="0.88" fill="#0D0D28" fill-rule="nonzero" points="0.135034117 84.0554007 169.396781 147.122452 337.896781 84.3466511 337.896781 63.3321038 168.945554 5.22683949e-13 0.135034117 63.3321038"></polygon>
                <polygon id="Path" stroke="#00ABE8" points="0.138164688 84.2392862 169.396781 147.122452 337.896781 84.4783116 337.896781 63.3321038 168.972096 3.86810753e-13 0.138164688 63.3321038"></polygon>
                <g id="m3-logo" transform="translate(95.826358, 35.906974)">
                    <g id="Clipped">
                        <mask id="mask-12" fill="white">
                            <use xlink:href="#path-11"></use>
                        </mask>
                        <g id="9zn8omn4sg"></g>
                        <path d="M104.111641,51.6056537 L92.8387535,52.0971587 L79.7550845,52.6670196 L52.1329507,53.8708508 C50.3404959,53.9906305 48.540157,53.8490592 46.7884155,53.4505784 C46.1133794,53.2928587 45.4497404,53.0897809 44.8020141,52.8427267 L8.15919718,38.7695368 C8.03341549,38.7220484 7.95509859,38.6626879 7.8411831,38.6175739 C6.30332394,37.8601338 5.47506338,36.9246122 5.49143094,35.958223 L7.88390141,27.961175 L10.2357817,19.7789222 L11.3512042,15.9798495 C11.4888521,15.683047 11.7190563,15.3886188 12.0346972,15.1108116 C12.2055704,14.9564743 12.4001761,14.8092602 12.6208873,14.666795 L12.8534648,14.5195809 C13.1691056,14.3343762 13.5227183,14.1634179 13.9119296,13.9995829 L13.9665141,13.9782131 C14.4269225,13.7953827 14.9347958,13.6267989 15.4806408,13.4795848 L30.3750915,9.85621922 L56.4285141,3.5093934 L60.1473803,2.60711364 C62.3639859,2.06337136 65.0932113,1.94702475 67.5281549,2.2889413 L117.135979,8.80435097 C118.218176,9.07978374 119.207817,9.40270491 120.088289,9.76836566 L120.230683,9.82297733 C121.120648,10.1625195 121.808887,10.5709198 122.245563,11.0244341 L139.337634,30.0340441 C139.707859,30.513677 139.852627,31.0146797 139.764817,31.5156824 C139.7199,31.7829625 139.614358,32.036389 139.456296,32.2565016 C139.280676,32.4939436 139.038606,32.7290112 138.732458,32.9498323 L135.867958,34.7069035 L110.773324,50.0717781 C109.119176,50.8838299 106.738817,51.4299466 104.111641,51.6056537 M115.4225,51.1877557 L115.659824,51.0690347 L143.284331,34.1702844 L143.410113,34.0776821 C143.953585,33.6835283 144.383141,33.2703791 144.691662,32.8429834 L144.715394,32.8097415 C144.995437,32.3989668 145.17343,31.9786944 145.242254,31.558422 C145.379901,30.7463702 145.142577,29.931944 144.537401,29.1555085 L144.494683,29.1032712 L127.758599,10.5139337 L127.713507,10.4640708 C126.95407,9.66151674 125.748465,8.93731851 124.182127,8.33659014 L123.557965,8.09677368 C122.401958,7.65759018 121.221226,7.28654488 120.021838,6.98554491 L119.279014,6.79559128 L70.1363451,0.337167701 C65.7031338,-0.268309509 60.7620493,-0.0522372495 56.734662,0.926023969 L27.6957042,7.99229918 L13.0456972,11.5586787 L12.9080493,11.594295 C12.0579113,11.8208401 11.2212053,12.0951245 10.4019085,12.4158444 L10.219169,12.4870771 C9.55466197,12.7601354 8.94948592,13.056938 8.41550704,13.3703615 L8.38702817,13.3798591 C8.26334355,13.4549125 8.14071419,13.5316929 8.01917606,13.6101779 L7.9978169,13.6173012 C6.95596479,14.3035087 6.24161972,15.0514511 5.88326056,15.830261 L5.84291549,15.9181146 L2.37323944,27.678619 L6.51800662e-13,35.6234298 L-0.00238586419,35.7777671 C-0.00711971831,37.330638 1.32664085,38.8312718 3.79480986,40.046975 L4.05349296,40.1775681 L4.07722535,40.1870658 L4.40710563,40.3366543 L40.4755986,54.1890231 C41.4367606,54.5570583 42.5047183,54.8823539 43.6604859,55.1577867 L43.7150704,55.1791564 C43.9334085,55.2290193 44.1612394,55.2812565 44.3772042,55.3239961 C47.1467746,55.9081035 50.3482746,56.131299 53.5046831,55.9532175 L104.277768,53.7212623 L104.491359,53.7093902 C108.805908,53.4173365 112.702768,52.5174311 115.420127,51.1877557" id="Shape" fill="#00EEC2" fill-rule="nonzero" mask="url(#mask-12)"></path>
                    </g>
                    <path d="M69.7613732,25.9262967 L69.6189789,25.7458408 L58.241669,10.9745712 C58.1396197,10.8344804 57.7599014,10.7561246 57.3944225,10.7964897 C57.2929734,10.8078667 57.1933272,10.8317936 57.0977676,10.8677223 L26.2171761,22.590236 C25.4957113,22.8989107 25.1800704,23.3191831 25.3675563,23.7228345 L36.445838,38.9476184 C36.6190845,39.1850604 37.2646056,39.3204024 37.8887676,39.2515442 C38.0589054,39.2339522 38.2262661,39.1956793 38.3871479,39.137572 L68.7029085,27.4934142 C69.7827324,27.0826395 70.1909296,26.4795367 69.7613732,25.9262967 M120.866711,30.8104795 L106.800521,17.0008503 C106.048204,16.2600311 104.512718,15.6806725 102.571408,15.4052398 L66.3462817,10.2290032 C65.9902958,10.176766 65.5868451,10.2456242 65.4444507,10.3833406 C65.3827465,10.4403266 65.3756268,10.5020616 65.4254648,10.5614221 L76.9000775,25.4585359 L76.9427958,25.5060243 L76.995007,25.5701336 L77.0234859,25.5986267 L77.1112958,25.679357 C77.6808732,26.1684876 78.7749366,26.5388972 80.1158169,26.6932345 L119.81062,31.2521217 C120.261535,31.3019846 120.745676,31.2022589 120.885697,31.0265518 C120.942655,30.9553192 120.935535,30.8793377 120.866711,30.8104795 M118.170711,33.8687331 C118.004585,33.7381399 117.688944,33.647912 117.316345,33.6241677 L110.244092,32.8572299 C109.190834,32.744051 108.126975,32.7776128 107.082937,32.9569556 L83.6590634,36.6135631 L85.4556056,30.6181515 C85.588507,30.3379699 85.1352183,30.1432674 84.0933662,30.0316696 L77.0163662,29.2623574 C76.5280232,29.2126779 76.0359847,29.2110874 75.547331,29.2576086 C75.1296111,29.2818323 74.7169857,29.3616835 74.3203662,29.4950506 L42.9271549,41.5523576 C42.6257535,41.6687042 42.5379437,41.7779275 42.6660986,41.8847764 C42.9332978,42.0323996 43.2319613,42.1138198 43.5370775,42.1222185 L51.4233521,42.9865075 C51.8932535,43.0387448 52.3892606,43.0434936 52.8710282,43.0031285 C53.3219437,42.9746354 53.742007,42.8939051 54.0742606,42.7728097 L73.8338521,35.184162 L72.4478803,39.0069789 C72.4099085,39.2990326 72.9486338,39.55547 73.7056972,39.600584 L77.0923099,39.9686191 C78.1365352,40.063596 79.2424648,40.018482 80.2249859,39.8451493 L95.0814648,37.4707289 L76.8573592,44.508511 L75.3242465,45.1187371 C75.0750563,45.1994674 74.9825,45.3324349 75.0964155,45.4464071 C75.2483028,45.5722514 75.5568239,45.6601049 75.9151831,45.6814747 L83.9296127,46.4769056 C84.3995141,46.5196451 84.8955211,46.5172707 85.3677958,46.4721567 C85.8187113,46.4389148 86.2340282,46.3534357 86.5639085,46.2323402 L117.881176,34.2035263 C118.151725,34.1251705 118.268014,33.9898285 118.170711,33.8687331" id="Shape" fill="#00EEC2" fill-rule="nonzero"></path>
                </g>
                <path d="M0.135034117,63.3321038 L169.396781,126.215986 L337.896781,63.3321038 M169.396781,126.215986 L169.396781,147.122452" id="Shape" stroke="#00ABE8"></path>
                <path d="M168.945554,21.0659466 L168.945554,4.54747351e-13 M0,83.9072843 L168.945554,21.0659466 L338.086042,84.2637863" id="Shape" stroke-opacity="0.5" stroke="#00ABE8" stroke-width="0.4"></path>
            </g>
        </g>
    </g>
</svg>